<svg width="683" height="683" viewBox="0 0 683 683" fill="none" xmlns="http://www.w3.org/2000/svg">
<path d="M323.067 9.19996C309.467 13.0666 300 18.6666 290 28.6666C279.333 39.3333 272.933 50.8 270 64.9333C268.4 72.5333 268 105.067 268 272.8V471.6L265.067 475.733C263.333 478 258.267 484.4 253.6 490.133C210.933 542.267 222.667 619.467 278.8 656.8C330.133 690.933 399.733 677.733 434.533 627.333C448.667 606.933 454.933 586.8 454.933 562C454.933 532 444.8 506.267 424.267 483.867C420.533 479.733 416.8 474.8 416 472.8C415.067 470.4 414.667 403.733 414.667 271.467C414.667 136.267 414.267 71.3333 413.2 65.8666C408.4 39.4666 384.933 14.9333 358.533 8.66663C347.333 6.13329 333.333 6.26663 323.067 9.19996ZM353.067 54.2666C355.6 55.4666 359.2 58.8 361.067 61.7333L364.667 67.2L365.067 283.2L365.333 499.333L372.133 502.667C381.2 506.933 391.333 516.133 397.6 525.867C411.6 547.6 411.6 576.533 397.467 598.133C388.8 611.467 378.933 619.333 363.333 625.333C352.4 629.6 331.067 629.733 319.867 625.733C280.4 611.333 263.333 567.6 282.4 530C286.8 521.2 301.6 506.667 310.4 502.667L317.333 499.333V284.8V70.1333L320.133 64.4C326 52.1333 339.733 48 353.067 54.2666Z" fill="url(#paint0_linear_3_7)"/>
<path d="M322.667 449.867V505.2L315.733 508.4C306.667 512.533 296.4 521.867 291.067 530.8C272.8 561.333 286.533 601.867 319.6 614.8C330.533 619.067 349.467 619.067 360.4 614.8C393.467 601.867 407.2 561.333 388.933 530.8C383.867 522.4 373.6 512.8 365.733 508.933L360 506.133V450.4V394.667H341.333H322.667V449.867Z" fill="url(#paint1_linear_3_7)"/>
<path d="M214.133 69.8667L209.333 74.2667V94.5334V114.933L213.2 118.8C216.267 121.867 218.267 122.667 222.667 122.667C234.933 122.667 237.333 118.267 237.333 94.6667C237.333 76.1334 236.667 73.3334 230.8 68.4C225.6 64 219.733 64.4 214.133 69.8667Z" fill="url(#paint2_linear_3_7)"/>
<path d="M108.533 112.533C102.933 115.067 100 119.467 100 125.867C100 130.667 101.067 132.133 113.6 144.8C124 155.467 128.267 158.8 131.733 159.467C142 161.467 151.2 151.733 148 142.133C146.4 137.067 123.6 114.133 118.267 112.133C113.6 110.4 113.6 110.4 108.533 112.533Z" fill="url(#paint3_linear_3_7)"/>
<path d="M205.733 159.333C180.133 164.933 157.467 186 149.2 212C144.8 225.6 145.2 245.467 150.267 259.333C160.133 286.933 183.067 306.533 210.667 310.8C219.733 312.133 236 311.6 240.8 309.733C242.4 309.2 242.667 297.067 242.667 234V159.067L236.533 158.133C227.067 156.933 214.933 157.333 205.733 159.333Z" fill="url(#paint4_linear_3_7)"/>
<path d="M61.7333 222.667C49.3333 230.133 53.7333 246.533 68.6667 248.8C79.4667 250.4 101.6 248.8 105.467 246.267C113.867 240.667 113.733 228.667 105.467 223.067C101.333 220.267 99.4667 220 83.4667 220C68.5333 220 65.3333 220.4 61.7333 222.667Z" fill="url(#paint5_linear_3_7)"/>
<path d="M433.333 241.333C431.733 242.933 430.667 245.733 430.667 248.533C430.667 253.467 432.4 255.2 444.4 263.6C450.533 267.867 450.667 268 450.667 275.333C450.667 283.2 450.133 283.733 446.133 280.667C439.867 275.867 430.667 280.8 430.667 288.8C430.667 294 432.267 295.733 442.4 302.533C449.2 307.067 450.667 308.8 450.667 311.733C450.667 314.933 449.333 316.267 440.8 321.067C435.467 324.133 430.267 326.667 429.467 326.667C428.4 326.667 428 335.467 428 356.667C428 377.867 428.4 386.667 429.467 386.667C430.267 386.667 435.467 389.2 440.8 392.267C449.333 397.067 450.667 398.4 450.667 401.6C450.667 404.533 449.2 406.267 442.4 410.8C432.133 417.6 430.667 419.333 430.667 424.8C430.667 432.533 440 437.333 446.133 432.667C450.267 429.6 450.8 430.267 450.4 438.267C450 445.867 450 446 442.667 450.933C431.333 458.933 430.667 459.6 430.667 464.667C430.667 470.4 434.533 474.667 439.733 474.667C441.867 474.667 447.067 472.267 452.133 468.8L460.8 462.933L469.333 468.8C474.133 472 479.333 474.667 480.8 474.667C485.733 474.667 490.667 469.733 490.667 464.8C490.667 459.333 489.2 457.6 479.067 450.8L470.667 445.2V437.333V429.333L475.067 432C480.533 435.333 482.8 435.333 487.2 431.867C489.733 429.867 490.667 427.867 490.667 424.533C490.667 419.333 487.867 416 477.2 409.2C472 405.867 470.667 404.267 470.667 401.467C470.667 398.4 472.133 397.067 480.667 392.133C494.933 384.133 498.667 386.133 498.667 402C498.667 410.667 500.533 415.2 504.933 417.2C509.467 419.333 511.2 419.067 515.2 415.867C517.867 413.733 518.667 412 518.667 407.733C518.667 401.733 519.067 401.733 527.867 407.333C533.333 410.667 533.333 410.667 533.333 419.2C533.333 430.267 535.2 435.333 540.133 437.333C543.2 438.667 544.8 438.667 548 437.333C552.933 435.333 553.867 432.4 553.467 419.733L553.2 409.467L562.533 404.8C575.2 398.267 578 392.533 571.333 386C567.067 381.6 564.4 381.733 552.4 387.333L542.267 392L535.6 388.133L528.933 384.267L533.2 382.133C540.4 378.267 541.733 368.933 535.6 364.667C531.333 361.6 527.467 362.267 517.333 367.333C509.333 371.333 507.6 371.733 504.667 370.4C501.467 368.933 501.333 368.533 501.333 356.667C501.333 344.933 501.467 344.4 504.667 342.933C507.333 341.6 509.467 342.133 518 346C530 351.6 532.4 351.733 536.667 347.333C542.267 341.867 540.133 334.933 531.333 330C529.2 328.667 529.867 328.133 536.133 324.8L543.333 320.933L552.933 325.867C564.267 331.6 567.067 331.733 571.333 327.333C578 320.8 574.533 313.6 561.467 307.467L553.333 303.467V291.867C553.333 280.8 553.2 280 549.867 277.467C545.867 274.267 544.133 274 539.6 276.133C535.2 278.133 533.333 282.667 533.333 291.067C533.333 301.333 532.267 303.6 526 307.333C522.8 309.2 519.867 310.667 519.467 310.667C519.067 310.667 518.667 308.133 518.4 305.067C517.733 295.733 509.733 292.133 502.133 297.733C500 299.333 498 309.867 497.467 322.4C497.333 323.333 495.867 324.667 494.133 325.467C491.333 326.8 489.467 326.267 480.8 321.2C467.6 313.6 467.2 310.8 478.267 303.2C489.067 295.867 490.667 294 490.667 288.8C490.667 285.467 489.733 283.467 487.2 281.467C482.8 278 480.533 278 475.067 281.333L470.667 284V276V268.133L479.067 262.533C489.2 255.733 490.667 254 490.667 248.667C490.667 243.6 486 238.667 481.2 238.667C479.467 238.667 474.133 241.333 469.333 244.533L460.667 250.267L452 244.533C442.4 238 437.467 237.2 433.333 241.333ZM471.333 338.933L481.333 344.667V356.667V368.667L471.333 374.267C465.867 377.467 461.067 380 460.667 380C460.267 380 455.467 377.467 450 374.267L440 368.667V356.667V344.667L449.733 339.067C454.933 336 459.867 333.467 460.4 333.467C460.933 333.333 465.867 335.867 471.333 338.933Z" fill="url(#paint6_linear_3_7)"/>
<path d="M126 310.4C118.667 315.067 100.4 335.067 99.4667 339.467C97.4667 348.267 103.867 356 112.933 356C118.4 356 119.467 355.2 131.067 344.533C145.2 331.467 148.667 326 147.467 319.467C145.733 310.133 134.133 305.2 126 310.4Z" fill="url(#paint7_linear_3_7)"/>
<path d="M217.867 346.533C216.267 347.2 213.733 349.467 212.133 351.467C209.6 354.8 209.333 356.667 209.333 374.533C209.333 395.6 209.733 396.933 217.6 401.733C222.8 405.067 225.6 404.533 231.467 399.467L236.667 394.933V374.133C236.667 353.733 236.667 353.333 233.2 350C229.6 346.267 222.267 344.667 217.867 346.533Z" fill="url(#paint8_linear_3_7)"/>
<defs>
<linearGradient id="paint0_linear_3_7" x1="341.399" y1="675.766" x2="341.399" y2="6.87567" gradientUnits="userSpaceOnUse">
<stop offset="0.336538" stop-color="#7199FF"/>
<stop offset="1" stop-color="#8903EF"/>
</linearGradient>
<linearGradient id="paint1_linear_3_7" x1="340" y1="618" x2="340" y2="394.667" gradientUnits="userSpaceOnUse">
<stop offset="0.336538" stop-color="#7199FF"/>
<stop offset="1" stop-color="#8903EF"/>
</linearGradient>
<linearGradient id="paint2_linear_3_7" x1="223.333" y1="122.667" x2="223.333" y2="65.4002" gradientUnits="userSpaceOnUse">
<stop offset="0.336538" stop-color="#7199FF"/>
<stop offset="1" stop-color="#8903EF"/>
</linearGradient>
<linearGradient id="paint3_linear_3_7" x1="124.323" y1="159.73" x2="124.323" y2="110.879" gradientUnits="userSpaceOnUse">
<stop offset="0.336538" stop-color="#7199FF"/>
<stop offset="1" stop-color="#8903EF"/>
</linearGradient>
<linearGradient id="paint4_linear_3_7" x1="194.414" y1="311.541" x2="194.414" y2="157.458" gradientUnits="userSpaceOnUse">
<stop offset="0.336538" stop-color="#7199FF"/>
<stop offset="1" stop-color="#8903EF"/>
</linearGradient>
<linearGradient id="paint5_linear_3_7" x1="83.1165" y1="249.441" x2="83.1165" y2="220" gradientUnits="userSpaceOnUse">
<stop offset="0.336538" stop-color="#7199FF"/>
<stop offset="1" stop-color="#8903EF"/>
</linearGradient>
<linearGradient id="paint6_linear_3_7" x1="501.419" y1="474.667" x2="501.419" y2="238.667" gradientUnits="userSpaceOnUse">
<stop offset="0.336538" stop-color="#7199FF"/>
<stop offset="1" stop-color="#8903EF"/>
</linearGradient>
<linearGradient id="paint7_linear_3_7" x1="123.393" y1="356" x2="123.393" y2="308.289" gradientUnits="userSpaceOnUse">
<stop offset="0.336538" stop-color="#7199FF"/>
<stop offset="1" stop-color="#8903EF"/>
</linearGradient>
<linearGradient id="paint8_linear_3_7" x1="223" y1="403.838" x2="223" y2="345.751" gradientUnits="userSpaceOnUse">
<stop offset="0.336538" stop-color="#7199FF"/>
<stop offset="1" stop-color="#8903EF"/>
</linearGradient>
</defs>
</svg>
