<svg width="683" height="683" viewBox="0 0 683 683" fill="none" xmlns="http://www.w3.org/2000/svg">
<g clip-path="url(#clip0_1_2)">
<path d="M536.667 66C530 68.4 526.533 72.4 508.133 98.5333C481.467 136.533 462.133 171.333 453.067 197.467C449.067 208.933 448.8 211.333 448.8 226C448.933 239.333 449.467 243.6 452.267 252.267C457.467 268.133 464.533 279.467 476.533 291.467C488.533 303.467 499.867 310.533 515.733 315.733C524.667 318.667 528.267 319.2 544 319.2C559.733 319.2 563.333 318.667 572.267 315.733C588.133 310.533 599.467 303.467 611.467 291.467C623.467 279.467 630.533 268.133 635.733 252.267C638.533 243.6 639.067 239.467 639.2 226C639.2 208.533 637.467 201.6 627.333 178.4C613.333 146.667 565.2 72.8 555.067 67.4666C549.067 64.4 542.533 63.8666 536.667 66ZM556.933 140.933C577.6 172.8 589.733 195.467 594.667 211.867C598.667 224.8 597.733 234.533 591.333 247.467C585.733 258.933 577.733 266.667 565.6 272.4C557.467 276.267 555.467 276.667 544 276.667C532.533 276.667 530.533 276.267 522.4 272.4C510.267 266.667 502.267 258.933 496.667 247.467C490.267 234.533 489.333 224.8 493.333 211.867C496.267 201.867 504.267 184.933 513.733 168.667C522.133 154.133 542.8 122.667 544 122.667C544.533 122.667 550.4 130.933 556.933 140.933Z" fill="url(#paint0_linear_1_2)"/>
<path d="M246.667 77.6C244 79.4667 238.133 87.2 232.133 96.6666C213.733 125.733 197.6 147.867 153.333 204.667C105.2 266.4 87.2 292.933 70.8 326.533C53.6 361.733 46.9333 386 45.7333 418.133C43.7333 468.667 58 513.867 88.1333 553.333C123.333 599.333 170.933 626.933 228.933 635.2C255.333 638.933 282.8 637.2 310 629.867C378.133 611.733 432.933 560.533 455.733 494C464 469.867 466 456.933 465.867 426.667C465.867 401.6 465.6 398 462.267 383.867C453.2 345.467 435.867 310.267 402.8 263.333C390 245.067 385.733 239.333 363.333 210.667C318 152.667 297.733 125.067 279.867 96.6666C268.8 79.2 263.867 74.6667 256 74.6667C253.067 74.6667 249.2 75.8667 246.667 77.6ZM226.133 291.333C259.6 307.867 265.867 351.2 238.4 376.667C229.467 385.067 219.333 389.333 206.667 390.267C170.8 392.933 142.667 358.267 152.8 323.867C162.133 292 196.533 276.667 226.133 291.333ZM355.467 325.733C361.2 330.933 362.933 339.733 359.6 346.133C358.4 348.267 317.067 390.267 267.733 439.6C168.133 538.933 172.933 534.933 161.067 529.6C152.267 525.733 148.533 516.533 152.133 507.067C153.6 503.2 323.467 332 332.533 325.2C340.133 319.467 348.933 319.733 355.467 325.733ZM321.867 463.333C332 466 339.733 470.667 347.067 478.533C354 485.867 357.067 491.333 359.467 500.667C369.2 537.2 337.467 572 300.4 565.733C252.8 557.467 240.267 495.733 280.933 469.733C293.333 461.733 307.467 459.6 321.867 463.333Z" fill="url(#paint1_linear_1_2)"/>
<path d="M198.933 321.467C186.533 324 181.733 339.2 190.133 349.333C196.533 356.8 206.933 357.6 214.667 351.2C228.533 339.467 216.933 317.6 198.933 321.467Z" fill="url(#paint2_linear_1_2)"/>
<path d="M303.467 497.333C290.667 501.2 287.2 518.533 297.333 527.2C305.067 533.6 315.467 532.8 321.867 525.2C332.933 512 320 492.4 303.467 497.333Z" fill="url(#paint3_linear_1_2)"/>
<path d="M506.667 364.667C493.733 367.2 486.267 370.533 487.333 373.2C489.6 378.933 493.467 397.733 494.267 406.267L495.067 415.867L498.667 413.333C506 408.133 513.6 406 525.333 406C539.067 406 546.933 409.333 560 420.667C570.667 430 586.8 438 600 440.8C625.067 446 639.333 439.067 639.333 421.6C639.333 408.133 632.267 401.867 615.067 399.867C602.4 398.533 596.133 395.6 584 385.333C561.733 366.533 534 359.2 506.667 364.667Z" fill="url(#paint4_linear_1_2)"/>
<path d="M505.733 452.667C493.6 455.333 492.8 456 490.8 465.6C488.533 476.933 482.133 496.533 476.667 509.467C474.133 515.2 472.4 520 472.8 520C474.267 520 483.867 513.2 490.667 507.333C502.533 497.067 510.4 494 524.667 494C539.333 494 546.8 497.067 560 508.533C576.267 522.667 599.733 531.467 618.267 530.4C624 530 627.733 529.067 630.267 527.2C642.667 517.867 643.067 501.6 631.2 492.4C627.733 489.867 624.267 488.8 616 487.867C603.067 486.4 596.133 483.2 583.333 472.667C561.067 454.267 532.267 446.933 505.733 452.667Z" fill="url(#paint5_linear_1_2)"/>
</g>
<defs>
<linearGradient id="paint0_linear_1_2" x1="544" y1="319.2" x2="544" y2="64.7113" gradientUnits="userSpaceOnUse">
<stop stop-color="#7A00A3"/>
<stop offset="0.509615" stop-color="#79B8FF"/>
</linearGradient>
<linearGradient id="paint1_linear_1_2" x1="255.711" y1="637.107" x2="255.711" y2="74.6667" gradientUnits="userSpaceOnUse">
<stop stop-color="#7A00A3"/>
<stop offset="0.509615" stop-color="#79B8FF"/>
</linearGradient>
<linearGradient id="paint2_linear_1_2" x1="203.356" y1="355.515" x2="203.356" y2="321.014" gradientUnits="userSpaceOnUse">
<stop offset="0.192308" stop-color="#7D9BFF"/>
<stop offset="1" stop-color="#609FFF"/>
</linearGradient>
<linearGradient id="paint3_linear_1_2" x1="308.709" y1="531.502" x2="308.709" y2="496.554" gradientUnits="userSpaceOnUse">
<stop offset="0.192308" stop-color="#9000C0"/>
<stop offset="1" stop-color="#5993FF"/>
</linearGradient>
<linearGradient id="paint4_linear_1_2" x1="563.283" y1="442.488" x2="563.283" y2="362.902" gradientUnits="userSpaceOnUse">
<stop stop-color="#8900D8"/>
<stop offset="1" stop-color="#79B8FF"/>
</linearGradient>
<linearGradient id="paint5_linear_1_2" x1="556.291" y1="530.487" x2="556.291" y2="450.758" gradientUnits="userSpaceOnUse">
<stop stop-color="#8A00DA"/>
<stop offset="1" stop-color="#79B8FF"/>
</linearGradient>
<clipPath id="clip0_1_2">
<rect width="682.667" height="682.667" fill="white"/>
</clipPath>
</defs>
</svg>
