<svg fill="none" height="24" viewBox="0 0 24 24" width="24" xmlns="http://www.w3.org/2000/svg"><g stroke="#222"><path d="m12 21.5c4.1012 0 7.5-3.0628 7.5-6.9286 0-2.4159-1.2328-4.85891-2.6268-6.86234-1.4034-2.01692-3.0217-3.66085-3.8954-4.49128-.5515-.52414-1.4041-.52414-1.9556.00001-.8737.83042-2.49204 2.47435-3.8954 4.49127-1.39398 2.00343-2.6268 4.44644-2.6268 6.86234 0 3.8658 3.3988 6.9286 7.5 6.9286z"/><path d="m12 18c-.5253 0-1.0454-.1035-1.5307-.3045-.48534-.201-.92629-.4956-1.29773-.8671-.37143-.3714-.66607-.8124-.86709-1.2977s-.30448-1.0054-.30448-1.5307" stroke-linecap="round"/></g></svg>