<svg width="683" height="683" viewBox="0 0 683 683" fill="none" xmlns="http://www.w3.org/2000/svg">
<g clip-path="url(#clip0_5_51)">
<path d="M409.333 2.13333C385.333 7.2 361.733 25.7333 350.8 48C340.933 68.2667 341.333 57.3333 341.333 254.933V431.733L329.6 443.6C310.4 462.933 298.8 483.467 291.867 510C287.333 527.2 287.333 558 291.867 575.067C305.6 627.733 342.933 665.067 395.467 678.8C405.467 681.467 410.667 681.867 428 681.867C451.6 681.867 463.867 679.467 484.133 670.8C540.133 646.667 574.8 585.467 566.8 524.667C564.933 510.4 557.733 488 551.2 476.133C544.4 463.733 533.067 449.2 523.2 440.267L514.667 432.4V255.2C514.667 57.3333 515.067 68.2667 505.2 48C494.133 25.4667 470.533 7.06666 446 2C434.533 -0.400003 420.8 -0.400003 409.333 2.13333ZM437.333 242.667C440.8 244.4 443.6 247.2 445.333 250.667C448 255.733 448 258.267 448 370.933V486L455.067 489.333C463.6 493.333 476.933 506.4 481.2 515.067C490.4 534.133 490.133 552.133 480.4 570.933C468.933 592.933 443.2 605.867 418.8 601.6C405.6 599.333 395.467 594.133 386 584.667C367.067 566 362.933 539.733 374.8 515.067C378.933 506.4 392.4 493.2 401.067 489.333L408 486.133V370.8C408.133 241.067 407.467 249.6 418.133 243.2C424.533 239.333 430.4 239.2 437.333 242.667Z" fill="url(#paint0_linear_5_51)"/>
<path d="M418.4 525.467C412.667 528.4 408 536.267 408 542.667C408 552.8 417.867 562.667 428 562.667C438.133 562.667 448 552.8 448 542.667C448 536 443.333 528.4 437.333 525.333C430.8 522 424.8 522 418.4 525.467Z" fill="url(#paint1_linear_5_51)"/>
<path d="M99.3333 82.1333C93.4667 85.2 40.2667 138.4 37.2 144.267C34 150.667 34 156.133 37.3333 162.667C40.4 168.667 48 173.333 54.6667 173.333C61.0667 173.333 66.4 170 77.7333 158.933L88 148.667V246.4C88 341.733 88 344.267 90.6667 349.333C93.7333 355.333 101.333 360 108 360C114.667 360 122.267 355.333 125.333 349.333C128 344.267 128 341.733 128 246.4V148.667L138.4 158.933C149.6 170 154.933 173.333 161.333 173.333C168 173.333 175.6 168.667 178.667 162.667C182 156.133 182 150.667 178.8 144.267C175.6 138.133 122.267 85.0667 116.4 82.1333C111.067 79.4667 104.533 79.4667 99.3333 82.1333Z" fill="url(#paint2_linear_5_51)"/>
<path d="M578.4 82.8C572.667 85.7333 568 93.6 568 100C568 106.667 572.667 114.267 578.667 117.333C583.333 119.733 586.533 120 608 120C629.467 120 632.667 119.733 637.333 117.333C643.333 114.267 648 106.667 648 100C648 93.3333 643.333 85.7333 637.333 82.6667C632.667 80.2667 629.6 80 607.733 80C586.133 80.1333 582.8 80.4 578.4 82.8Z" fill="url(#paint3_linear_5_51)"/>
<path d="M578.4 162.8C572.667 165.733 568 173.6 568 180C568 186.667 572.667 194.267 578.667 197.333C582.933 199.467 586.533 200 598 200C609.467 200 613.067 199.467 617.333 197.333C623.333 194.267 628 186.667 628 180C628 173.333 623.333 165.733 617.333 162.667C609.867 158.8 585.733 158.933 578.4 162.8Z" fill="url(#paint4_linear_5_51)"/>
<path d="M178.4 242.8C175.333 244.4 172.267 247.467 170.667 250.667C168.133 255.733 168 258.4 168 353.6V451.333L157.733 441.067C152 435.467 145.467 430 143.067 428.8C126.8 420.667 108.667 438.8 116.8 455.067C119.733 460.933 172.8 514.267 178.933 517.467C185.2 520.667 190.8 520.667 197.067 517.467C203.2 514.267 256.267 460.933 259.2 455.067C267.333 438.8 249.2 420.667 232.933 428.8C230.533 430 224 435.467 218.4 441.067L208 451.333V353.6C208 258.267 208 255.733 205.333 250.667C200.4 240.933 188.4 237.467 178.4 242.8Z" fill="url(#paint5_linear_5_51)"/>
<path d="M578.4 242.8C572.667 245.733 568 253.6 568 260C568 266.667 572.667 274.267 578.667 277.333C583.333 279.733 586.533 280 608 280C629.467 280 632.667 279.733 637.333 277.333C643.333 274.267 648 266.667 648 260C648 253.333 643.333 245.733 637.333 242.667C632.667 240.267 629.6 240 607.733 240C586.133 240.133 582.8 240.4 578.4 242.8Z" fill="url(#paint6_linear_5_51)"/>
<path d="M578.4 322.8C572.667 325.733 568 333.6 568 340C568 346.667 572.667 354.267 578.667 357.333C582.933 359.467 586.533 360 598 360C609.467 360 613.067 359.467 617.333 357.333C623.333 354.267 628 346.667 628 340C628 333.333 623.333 325.733 617.333 322.667C609.867 318.8 585.733 318.933 578.4 322.8Z" fill="url(#paint7_linear_5_51)"/>
<path d="M578.4 402.8C572.667 405.733 568 413.6 568 420C568 426.667 572.667 434.267 578.667 437.333C583.333 439.733 586.533 440 608 440C629.467 440 632.667 439.733 637.333 437.333C643.333 434.267 648 426.667 648 420C648 413.333 643.333 405.733 637.333 402.667C632.667 400.267 629.6 400 607.733 400C586.133 400.133 582.8 400.4 578.4 402.8Z" fill="url(#paint8_linear_5_51)"/>
</g>
<defs>
<linearGradient id="paint0_linear_5_51" x1="428.205" y1="681.867" x2="428.205" y2="0.21637" gradientUnits="userSpaceOnUse">
<stop stop-color="#9100C2"/>
<stop offset="0.716346" stop-color="#4E86FF"/>
</linearGradient>
<linearGradient id="paint1_linear_5_51" x1="428" y1="562.667" x2="428" y2="522.85" gradientUnits="userSpaceOnUse">
<stop stop-color="#9100C2"/>
<stop offset="0.716346" stop-color="#4E86FF"/>
</linearGradient>
<linearGradient id="paint2_linear_5_51" x1="108" y1="360" x2="108" y2="80.1334" gradientUnits="userSpaceOnUse">
<stop stop-color="#9100C2"/>
<stop offset="0.716346" stop-color="#4E86FF"/>
</linearGradient>
<linearGradient id="paint3_linear_5_51" x1="608" y1="120" x2="608" y2="80" gradientUnits="userSpaceOnUse">
<stop stop-color="#9100C2"/>
<stop offset="0.716346" stop-color="#4E86FF"/>
</linearGradient>
<linearGradient id="paint4_linear_5_51" x1="598" y1="200" x2="598" y2="159.833" gradientUnits="userSpaceOnUse">
<stop stop-color="#9100C2"/>
<stop offset="0.716346" stop-color="#4E86FF"/>
</linearGradient>
<linearGradient id="paint5_linear_5_51" x1="188" y1="519.867" x2="188" y2="240.3" gradientUnits="userSpaceOnUse">
<stop stop-color="#9100C2"/>
<stop offset="0.716346" stop-color="#4E86FF"/>
</linearGradient>
<linearGradient id="paint6_linear_5_51" x1="608" y1="280" x2="608" y2="240" gradientUnits="userSpaceOnUse">
<stop stop-color="#9100C2"/>
<stop offset="0.716346" stop-color="#4E86FF"/>
</linearGradient>
<linearGradient id="paint7_linear_5_51" x1="598" y1="360" x2="598" y2="319.833" gradientUnits="userSpaceOnUse">
<stop stop-color="#9100C2"/>
<stop offset="0.716346" stop-color="#4E86FF"/>
</linearGradient>
<linearGradient id="paint8_linear_5_51" x1="608" y1="440" x2="608" y2="400" gradientUnits="userSpaceOnUse">
<stop stop-color="#9100C2"/>
<stop offset="0.716346" stop-color="#4E86FF"/>
</linearGradient>
<clipPath id="clip0_5_51">
<rect width="682.667" height="682.667" fill="white"/>
</clipPath>
</defs>
</svg>
