<svg width="623" height="682" viewBox="0 0 623 682" fill="none" xmlns="http://www.w3.org/2000/svg">
<path d="M287.252 0.692026C220.586 7.09203 163.919 29.7587 114.586 69.7587C98.719 82.692 74.319 107.892 62.4523 123.759C30.4523 166.425 10.4523 214.559 2.45232 267.759C-0.48101 286.692 -0.88101 331.892 1.78566 350.425C14.4523 442.959 63.2523 521.092 139.919 572.025C155.252 582.159 189.252 600.025 196.852 601.759L200.452 602.692L200.852 633.492C201.252 663.359 201.386 664.559 204.452 669.492C206.186 672.292 210.052 676.159 212.986 678.159L218.452 681.759H311.386H404.319L410.052 677.759C420.452 670.425 421.252 667.359 421.652 632.825L422.052 602.692L425.652 601.759C432.452 600.159 466.586 582.559 480.586 573.359C587.919 503.225 641.519 376.959 617.119 251.625C611.652 223.492 599.519 188.025 592.852 180.692C588.052 175.625 579.786 175.625 574.719 180.559C570.052 185.359 570.186 191.492 575.386 203.892C577.519 209.359 581.386 220.425 583.919 228.559C612.052 321.225 591.519 421.092 528.719 496.025C497.786 532.959 453.786 563.359 407.252 580.159C356.452 598.559 295.652 601.625 242.719 588.292C160.186 567.625 93.2523 513.492 55.3857 437.092C22.1857 370.025 17.119 291.625 41.3857 219.892C55.6523 177.625 77.3857 142.825 109.919 110.425C142.452 77.892 177.919 55.6254 220.186 41.492C298.452 15.3587 382.719 23.7587 453.919 64.8254C469.919 74.0254 480.586 81.6254 496.186 94.8254C509.652 106.159 513.919 107.892 520.319 104.559C525.386 101.892 527.252 98.692 527.252 92.5587C527.252 86.692 523.919 82.692 508.186 70.0254C451.386 23.892 380.586 -0.907974 308.719 0.0253591C299.519 0.0253591 289.786 0.425359 287.252 0.692026ZM267.919 620.559C279.386 622.292 291.652 622.959 311.252 622.959C340.319 622.959 359.119 620.825 382.986 615.092L395.252 612.159V633.892V655.759H311.252H227.252V633.892V612.159L239.652 615.092C246.319 616.692 259.119 619.225 267.919 620.559Z" fill="url(#paint0_linear_5_52)"/>
<path d="M285.919 54.5587C238.586 59.492 191.786 78.1587 153.252 107.625C141.919 116.292 120.319 137.359 110.852 149.092C29.3857 250.025 34.8523 394.559 123.652 488.692C163.786 531.092 216.586 558.559 274.586 567.092C294.452 570.025 327.519 570.025 347.919 567.092C390.852 560.959 432.186 543.625 467.386 517.092C481.519 506.425 506.852 481.092 517.252 467.092C575.652 388.959 585.652 286.025 543.386 199.092C512.719 136.292 458.319 88.5587 391.919 66.5587C357.519 55.092 320.986 50.9587 285.919 54.5587ZM297.919 96.292C297.919 111.892 299.119 117.892 303.786 124.159C307.119 128.692 318.319 134.425 323.919 134.425C332.319 134.425 353.519 138.692 366.852 143.092C433.252 165.092 479.119 221.892 487.919 293.225C490.052 311.225 492.986 316.425 503.386 321.625C509.786 324.825 511.919 325.092 526.186 325.092H541.919V330.292C541.919 339.759 536.719 366.025 531.786 381.359C514.852 434.425 479.252 480.025 431.786 509.225C403.919 526.292 366.319 538.959 334.852 541.892L324.586 542.825V530.692C324.586 519.092 324.452 518.292 320.719 514.159C317.519 510.559 315.919 509.759 311.252 509.759C306.586 509.759 304.986 510.559 301.786 514.159C298.052 518.292 297.919 519.092 297.919 530.692V542.825L287.652 541.892C230.986 536.692 173.119 506.425 135.652 462.292C104.986 426.025 84.719 378.959 80.9857 335.225L80.1857 325.092H91.6523C104.586 325.092 109.252 323.492 112.052 318.292C114.319 313.759 114.452 310.292 112.319 305.759C109.786 300.159 104.719 298.425 91.7857 298.425H80.1857L80.9857 288.292C83.2523 261.759 90.9857 235.759 104.586 208.425C116.719 184.025 128.319 168.025 147.919 148.425C166.319 130.025 182.719 117.892 204.586 106.559C233.252 91.7587 267.386 81.6254 290.986 81.2254L297.919 81.092V96.292ZM358.986 85.092C388.186 91.2254 420.719 105.625 445.919 123.492C462.052 134.959 488.052 160.825 499.652 177.092C510.319 192.159 525.652 222.292 531.119 239.092C535.919 253.492 540.319 274.559 541.519 288.292L542.319 298.425H528.852H515.386L514.586 290.692C509.386 245.625 490.452 204.425 459.786 172.025C426.052 136.025 381.919 114.025 332.319 108.292L324.586 107.492V94.0254V80.692L335.652 81.6254C341.652 82.0254 352.186 83.6254 358.986 85.092Z" fill="url(#paint1_linear_5_52)"/>
<path d="M401.252 211.759C399.786 212.425 383.919 227.625 366.052 245.492L333.519 278.292L328.052 275.359C320.052 271.092 302.319 271.225 293.919 275.625C285.786 279.892 279.652 285.759 275.519 293.759C272.452 299.492 271.919 302.025 271.919 311.759C271.919 324.159 274.052 329.892 282.052 338.959C292.719 351.092 313.519 354.825 328.852 347.359C343.786 340.025 352.052 325.359 350.852 308.425L350.186 299.092L384.719 264.425C418.319 230.559 419.252 229.492 419.252 224.425C419.119 214.425 410.052 208.025 401.252 211.759ZM319.652 301.092C326.586 306.559 325.519 319.225 317.786 323.092C307.252 328.692 296.319 320.292 298.452 308.559C299.652 302.559 304.719 298.425 311.252 298.425C314.186 298.425 317.652 299.492 319.652 301.092Z" fill="url(#paint2_linear_5_52)"/>
<path d="M545.252 128.292C540.719 132.825 539.786 137.759 542.452 143.359C544.986 148.559 551.386 151.892 556.986 150.825C562.186 149.759 567.252 143.225 567.252 137.492C567.252 126.825 552.719 120.825 545.252 128.292Z" fill="url(#paint3_linear_5_52)"/>
<defs>
<linearGradient id="paint0_linear_5_52" x1="-102.5" y1="138.5" x2="842" y2="646" gradientUnits="userSpaceOnUse">
<stop offset="0.195992" stop-color="#57AEFF"/>
<stop offset="1" stop-color="#7700AE"/>
</linearGradient>
<linearGradient id="paint1_linear_5_52" x1="-31.6956" y1="158.122" x2="717.512" y2="598.756" gradientUnits="userSpaceOnUse">
<stop offset="0.195992" stop-color="#57AEFF"/>
<stop offset="1" stop-color="#7700AE"/>
</linearGradient>
<linearGradient id="paint2_linear_5_52" x1="247.676" y1="239.229" x2="456.263" y2="367.836" gradientUnits="userSpaceOnUse">
<stop offset="0.195992" stop-color="#57AEFF"/>
<stop offset="1" stop-color="#7700AE"/>
</linearGradient>
<linearGradient id="paint3_linear_5_52" x1="536.646" y1="130.262" x2="574.634" y2="152.794" gradientUnits="userSpaceOnUse">
<stop offset="0.195992" stop-color="#57AEFF"/>
<stop offset="1" stop-color="#7700AE"/>
</linearGradient>
</defs>
</svg>
