<?xml version="1.0" encoding="UTF-8"?>
<!DOCTYPE svg PUBLIC "-//W3C//DTD SVG 1.1//EN" "http://www.w3.org/Graphics/SVG/1.1/DTD/svg11.dtd">
<!-- Creator: CorelDRAW -->
<svg xmlns="http://www.w3.org/2000/svg" xml:space="preserve" width="2048px" height="2048px" style="shape-rendering:geometricPrecision; text-rendering:geometricPrecision; image-rendering:optimizeQuality; fill-rule:evenodd; clip-rule:evenodd"
viewBox="0 0 2048 2048"
 xmlns:xlink="http://www.w3.org/1999/xlink">
 <defs>
  <style type="text/css">
   <![CDATA[
    .fil1 {fill:none}
    .fil0 {fill:#424242;fill-rule:nonzero}
   ]]>
  </style>
 </defs>
 <g id="Layer_x0020_1">
  <metadata id="CorelCorpID_0Corel-Layer"/>
  <path class="fil0" d="M435.316 975.642c2.47795,0 5.02796,0.0661418 7.6441,0.196063 6.58347,-36.7677 24.3732,-69.6508 49.7103,-94.9879 32.4508,-32.452 77.2808,-52.5237 126.794,-52.5237 16.2555,0 32.0374,2.18032 47.0646,6.26339 1.79055,0.486615 3.57284,1.00276 5.34567,1.54725 10.2189,-28.1681 27.3,-53.0563 49.2272,-72.6402 31.7894,-28.3961 73.6134,-45.6579 119.337,-45.6579 31.1882,0 60.5918,8.0315 86.2572,22.1457 15.2421,8.38347 29.1284,18.9059 41.25,31.1599 15.8917,-13.0784 33.5055,-24.0886 52.4351,-32.6244 29.465,-13.285 62.0599,-20.6811 96.2741,-20.6811 49.8426,0 96.1678,15.6851 134.323,42.4122 28.5567,20.0032 52.4481,46.187 69.7193,76.5981 10.9004,-5.72717 22.3193,-10.6299 34.174,-14.6256 23.6847,-7.9819 48.8599,-12.3106 74.8323,-12.3106 57.9367,0 111.045,21.1134 152.073,56.0882 37.0689,31.6004 64.1682,74.6115 75.9154,123.641 37.5355,17.7898 69.606,45.28 92.9788,79.2379 26.0693,37.8733 41.3303,83.6327 41.3303,132.812 0,64.7693 -26.2571,123.411 -68.7036,165.859 -42.4477,42.4465 -101.089,68.7036 -165.859,68.7036 -6.38859,0 -13.5933,-0.373229 -21.5528,-1.10079 -1.21299,-0.111024 -2.42126,-0.230315 -3.62126,-0.357874 -19.441,19.1551 -42.3095,34.9843 -67.6512,46.5237 -29.7815,13.5614 -62.6729,21.1181 -97.0985,21.1181 -28.461,0 -55.9796,-5.20867 -81.639,-14.7378 -12.9815,-4.82126 -25.415,-10.7539 -37.1859,-17.6823 -16.8614,30.7807 -40.4091,57.3556 -68.6835,77.7568 -38.6386,27.8788 -85.9701,44.3079 -137.01,44.3079 -56.7851,0 -108.886,-20.2229 -149.498,-53.8666 -26.1166,-21.6354 -47.4615,-48.8587 -62.2312,-79.8473 -13.7941,12.4087 -29.0492,23.1898 -45.4737,32.0433 -33.1453,17.8701 -70.9831,28.0122 -111.089,28.0122 -61.8378,0 -118.109,-23.9882 -160.028,-63.1749 -34.1492,-31.9229 -58.7552,-73.9453 -69.0756,-121.319 -3.54213,0.230315 -6.97323,0.347244 -10.2862,0.347244 -49.513,0 -94.343,-20.0729 -126.794,-52.5237 -32.4508,-32.4508 -52.5237,-77.2808 -52.5237,-126.794 0,-49.5118 20.074,-94.343 52.5237,-126.794 32.4508,-32.4508 77.2808,-52.5237 126.794,-52.5237z"/>
  <path class="fil0" d="M1674.86 939.975c8.85709,-15.6449 16.4599,-32.1083 22.6677,-49.2532 12.5457,-34.6477 19.3866,-71.843 19.3866,-110.427 0,-89.5701 -36.3095,-170.665 -95.0115,-229.367 -58.702,-58.702 -139.797,-95.0115 -229.367,-95.0115 -83.432,0 -159.538,31.5473 -217.043,83.3729 -43.8071,39.4796 -76.7906,90.7666 -93.9674,148.867 11.6102,-1.54016 23.341,-2.31732 35.1296,-2.31732 54.7914,0 107.816,16.774 152.682,48.2032 24.4229,17.1071 45.8162,38.1815 63.254,62.2477 3.98386,-1.55906 8.00552,-3.02362 12.0602,-4.39016 27.417,-9.24095 56.1166,-13.9866 85.0524,-13.9866 63.5552,0 124.48,22.5177 172.832,63.7359 31.5166,26.8666 56.2288,60.58 72.3237,98.3257z"/>
 </g>
 <rect class="fil1" width="2048" height="2048"/>
</svg>
