<svg width="683" height="683" viewBox="0 0 683 683" fill="none" xmlns="http://www.w3.org/2000/svg">
<g clip-path="url(#clip0_5_51)">
<g clip-path="url(#clip1_5_51)">
<path d="M331.467 68.5334C322.267 74 321.467 77.2 321.333 105.733C321.333 128.267 321.6 131.333 324 136C327.067 142 334.667 146.667 341.333 146.667C348 146.667 355.6 142 358.667 136C361.067 131.333 361.333 128.133 361.333 105.867C361.333 82.6667 361.2 80.6667 358.4 75.7334C352.8 65.8667 341.067 62.6667 331.467 68.5334Z" fill="url(#paint0_linear_5_51)"/>
<path d="M172.4 110.533C165.067 114 161.333 120 161.333 128.533C161.333 134.267 162.667 137.333 172.933 155.2C179.333 166.267 186.133 176.933 188.133 178.933C198 189.067 218.133 182.667 220.8 168.533C222.133 161.467 220 156.133 207.067 134C194.8 113.2 192 110.267 182.667 108.8C179.467 108.267 176.267 108.8 172.4 110.533Z" fill="url(#paint1_linear_5_51)"/>
<path d="M495.467 110C492.533 110.933 489.2 112.933 487.867 114.267C486.667 115.6 480.267 125.867 473.733 137.2C463.2 155.867 462 158.533 462 164.667C462 176.933 471.733 185.333 484.133 183.6C492.533 182.533 496 178.667 509.067 156.267C520 137.333 521.333 134.267 521.333 128.533C521.333 120 517.6 113.867 510.267 110.667C503.6 107.6 502.267 107.467 495.467 110Z" fill="url(#paint2_linear_5_51)"/>
<path d="M322.667 202.133C261.733 209.333 211.467 237.867 176.267 285.067C160.4 306.4 147.467 334.4 141.333 360.667C138.667 372.133 135.467 396 136.533 396.933C136.8 397.333 145.467 396.8 155.6 395.867C197.6 392.267 223.6 396.8 281.067 418.133C319.6 432.4 325.067 433.867 342 433.867C358 433.867 358.667 433.6 420.667 411.333C464.267 395.733 494.533 392 539.067 396.933L546.933 397.733L546 389.867C539.2 328 510.8 277.333 462.667 241.467C439.467 224.133 406.133 209.733 377.733 204.667C366.267 202.533 332 201.067 322.667 202.133Z" fill="url(#paint3_linear_5_51)"/>
<path d="M52.2667 229.333C46.5333 232.8 42.1333 242.533 43.2 248.667C44.9333 257.467 49.0667 261.2 72 274.267C92.5333 286.133 94.4 286.8 100.133 286.267C107.733 285.6 113.6 281.6 116.667 275.2C119.467 269.2 118.8 260.4 114.933 255.067C113.333 252.933 103.467 246.267 90.9333 238.933C72 228.133 68.6667 226.667 63.0667 226.667C58.9333 226.667 55.0667 227.6 52.2667 229.333Z" fill="url(#paint4_linear_5_51)"/>
<path d="M591.467 239.2C579.867 246 569.067 253.2 567.6 255.2C563.867 260.4 563.2 269.2 566 275.2C569.067 281.6 574.933 285.6 582.533 286.267C588.267 286.8 590.133 286 610.667 274.267C633.6 261.2 637.733 257.467 639.467 248.667C640.533 242.533 636.133 232.8 630.4 229.333C627.467 227.6 623.733 226.667 619.333 226.667C613.333 226.8 610.4 228.133 591.467 239.2Z" fill="url(#paint5_linear_5_51)"/>
<path d="M10.1333 389.867C-3.20001 397.867 -2.93335 417.067 10.6667 424C15.3333 426.4 18.5333 426.667 40.6667 426.667C69.4667 426.667 73.8667 425.467 78.6667 416C82.1333 409.2 82 403.6 78.4 397.067C73.0667 387.733 69.2 386.667 40.4 386.667C16.4 386.667 15.0667 386.8 10.1333 389.867Z" fill="url(#paint6_linear_5_51)"/>
<path d="M611.467 389.867C598.133 397.867 598.4 417.067 612 424C616.667 426.4 619.867 426.667 642 426.667C670.8 426.667 675.2 425.467 680 416C683.467 409.2 683.333 403.6 679.733 397.067C674.4 387.733 670.533 386.667 641.733 386.667C617.733 386.667 616.4 386.8 611.467 389.867Z" fill="url(#paint7_linear_5_51)"/>
<path d="M158.667 435.467C146.267 436.667 119.2 441.467 106.133 444.8C81.2 451.067 20.9333 471.867 10.1333 477.733C-6.26668 486.933 -1.33334 511.733 17.3333 514.267C21.3333 514.8 26.2667 513.6 39.6 508.667C106.8 483.733 139.867 475.733 176 475.467C194.667 475.333 198.133 475.733 211.067 479.067C218.933 481.2 237.333 487.2 251.867 492.667C300.667 510.8 313.067 513.733 340.667 513.867C368.8 514 382.267 510.8 436.133 490.8C475.733 476.133 495.067 472.8 523.333 475.867C553.333 479.2 583.733 487.2 631.867 504.8C646.8 510.267 660.933 514.667 663.2 514.667C672.8 514.667 682.533 504.667 682.667 494.8C682.667 488.667 678 480.8 672.133 477.6C669.467 476.133 655.6 470.8 641.333 465.6C578.533 443.067 544.667 435.6 505.333 435.467C478.8 435.333 466.4 437.733 434.8 448.933C359.333 475.6 350.267 477.6 322.4 472.667C308.4 470.267 298.667 467.333 269.733 456.533C223.067 439.333 210 436.133 183.333 435.467C173.067 435.2 162 435.2 158.667 435.467Z" fill="url(#paint8_linear_5_51)"/>
<path d="M211.333 552.133C206.267 552.8 196.267 554.933 189.333 556.667C172.267 561.2 122.8 578.533 118.533 581.467C114.267 584.533 110.667 591.6 110.667 597.2C110.667 607.2 120.4 617.333 130 617.333C131.867 617.333 142.267 614.267 153.067 610.533C202.267 593.333 218 589.867 238.533 590.933C247.867 591.467 253.733 592.933 268.133 597.867C278 601.333 291.733 606.267 298.8 608.667C317.067 615.067 332.933 617.867 346.667 616.933C361.333 615.867 374.267 612.533 400.933 602.667C430.533 591.733 437.6 590.133 454 591.2C473.733 592.4 508.267 601.6 541.067 614.533C550 618.133 555.067 618 561.333 614.533C576 606.267 575.067 586.133 559.733 578.933C549.733 574.267 510.533 561.333 494.533 557.333C452.133 546.933 430.8 548.533 386.667 565.333C366.4 573.067 350.267 577.333 341.2 577.333C332.8 577.333 315.733 572.8 295.333 565.067C267.6 554.533 256.533 551.867 237.333 551.333C228.133 551.067 216.533 551.467 211.333 552.133Z" fill="url(#paint9_linear_5_51)"/>
</g>
</g>
<defs>
<linearGradient id="paint0_linear_5_51" x1="341.333" y1="146.667" x2="341.333" y2="65.5993" gradientUnits="userSpaceOnUse">
<stop offset="0.0144231" stop-color="#870093"/>
<stop offset="1" stop-color="#559EFF"/>
</linearGradient>
<linearGradient id="paint1_linear_5_51" x1="191.239" y1="183.882" x2="191.239" y2="108.602" gradientUnits="userSpaceOnUse">
<stop offset="0.0144231" stop-color="#870093"/>
<stop offset="1" stop-color="#559EFF"/>
</linearGradient>
<linearGradient id="paint2_linear_5_51" x1="491.667" y1="183.826" x2="491.667" y2="108.223" gradientUnits="userSpaceOnUse">
<stop offset="0.0144231" stop-color="#870093"/>
<stop offset="1" stop-color="#559EFF"/>
</linearGradient>
<linearGradient id="paint3_linear_5_51" x1="341.628" y1="433.867" x2="341.628" y2="201.777" gradientUnits="userSpaceOnUse">
<stop offset="0.0144231" stop-color="#870093"/>
<stop offset="1" stop-color="#559EFF"/>
</linearGradient>
<linearGradient id="paint4_linear_5_51" x1="80.7103" y1="286.393" x2="80.7103" y2="226.667" gradientUnits="userSpaceOnUse">
<stop offset="0.0144231" stop-color="#870093"/>
<stop offset="1" stop-color="#559EFF"/>
</linearGradient>
<linearGradient id="paint5_linear_5_51" x1="601.952" y1="286.386" x2="601.952" y2="226.667" gradientUnits="userSpaceOnUse">
<stop offset="0.0144231" stop-color="#870093"/>
<stop offset="1" stop-color="#559EFF"/>
</linearGradient>
<linearGradient id="paint6_linear_5_51" x1="40.7416" y1="426.667" x2="40.7416" y2="386.667" gradientUnits="userSpaceOnUse">
<stop offset="0.0144231" stop-color="#870093"/>
<stop offset="1" stop-color="#559EFF"/>
</linearGradient>
<linearGradient id="paint7_linear_5_51" x1="642.075" y1="426.667" x2="642.075" y2="386.667" gradientUnits="userSpaceOnUse">
<stop offset="0.0144231" stop-color="#870093"/>
<stop offset="1" stop-color="#559EFF"/>
</linearGradient>
<linearGradient id="paint8_linear_5_51" x1="341.431" y1="514.667" x2="341.431" y2="435.267" gradientUnits="userSpaceOnUse">
<stop offset="0.0144231" stop-color="#870093"/>
<stop offset="1" stop-color="#559EFF"/>
</linearGradient>
<linearGradient id="paint9_linear_5_51" x1="341.235" y1="617.333" x2="341.235" y2="550.813" gradientUnits="userSpaceOnUse">
<stop offset="0.0144231" stop-color="#870093"/>
<stop offset="1" stop-color="#559EFF"/>
</linearGradient>
<clipPath id="clip0_5_51">
<rect width="682.667" height="682.667" fill="white"/>
</clipPath>
<clipPath id="clip1_5_51">
<rect width="682.667" height="682.667" fill="white"/>
</clipPath>
</defs>
</svg>
