<svg width="683" height="683" viewBox="0 0 683 683" fill="none" xmlns="http://www.w3.org/2000/svg">
<path d="M230.4 2.00002C180.533 11.4667 140 48.2667 126.667 96.1334C122.533 111.067 120.8 129.6 122.8 137.733C125.867 150.533 140.533 160.533 152.533 157.867C166.8 154.8 173.067 146.933 174.933 129.733C176.4 114.8 179.067 105.6 184.933 94.4C193.733 77.4667 211.6 62.8 230 56.9334C243.6 52.6667 263.6 52.8 277.2 57.2C309.067 67.7334 330.933 97.3334 331.2 130.667C331.2 144.533 329.2 153.6 322.933 166.667C314.267 184.267 295.6 200.133 275.333 206.8C271.2 208.267 243.333 208.8 144.667 209.333C6.66666 210.133 16 209.467 7.73333 218.267C-4.93334 231.467 -1.33334 251.733 15.0667 260.133C19.8667 262.667 23.7333 262.667 148.4 262.4L276.667 262L288.4 258.267C327.333 246.133 355.333 222.4 372 187.867C387.2 156 388.8 117.333 375.867 84C367.733 62.8 350.267 40 331.467 25.8667C320.533 17.6 299.2 7.46668 285.333 4.00002C270.4 0.266684 244.667 -0.66665 230.4 2.00002Z" fill="url(#paint0_linear_1_3)"/>
<path d="M529.067 106.667C479.067 115.733 438.933 151.867 424.667 200.667C420.933 213.333 418.933 234.533 420.533 243.2C421.6 249.067 429.467 258.267 435.6 260.933C447.333 265.733 461.733 261.067 468.4 250.4C471.6 245.333 472.4 242 473.333 231.733C475.2 210.933 482.133 195.333 495.467 182.133C510.933 166.8 526.4 159.867 547.467 158.933C571.6 157.867 588.8 164.533 605.733 181.467C626.133 201.733 633.6 228.133 626.667 255.2C619.867 281.867 600.267 302.533 573.333 311.6C566.4 313.867 555.2 314 345.333 314.667L124.667 315.333L119.6 318.533C116.8 320.267 112.933 324.133 110.933 327.067C108 331.6 107.333 334 107.333 341.2C107.333 351.733 110.667 358.267 119.067 363.733L124.533 367.333H347.867H571.333L584.4 363.733C682.667 336.667 715.467 215.733 644 143.867C627.6 127.333 606.533 115.067 584.4 109.2C572.8 106 540.4 104.533 529.067 106.667Z" fill="url(#paint1_linear_1_3)"/>
<path d="M15.3333 422.267C-4.8 432.933 -4.8 459.333 15.3333 470.4C19.0667 472.533 37.7333 472.667 241.333 473.333C452.8 474 463.6 474.133 470 476.4C490.933 484.133 506.8 498 515.733 516.267C522 529.2 524 537.6 524 551.733C524 572.8 516.8 589.733 501.2 605.6C493.067 614 488.933 616.933 479.867 621.2C455.733 632.533 430.933 631.733 408.133 619.067C397.067 612.933 383.333 599.2 377.6 588.4C372.533 578.667 368 562.267 368 553.067C368 528.533 341.6 515.6 324 531.467C316.267 538.4 314.133 545.467 315.067 559.733C318.533 606.667 345.6 647.333 387.333 668.4C453.6 701.867 533.733 673.867 565.467 606.133C574.533 586.667 576.667 576 576.533 550C576.4 529.333 576.133 526.267 572.8 515.333C565.6 491.6 553.733 472.133 536.267 455.733C520.4 440.8 504 431.333 482 424.4L470 420.667L244.667 420.4C40.8 420.133 18.9333 420.267 15.3333 422.267Z" fill="url(#paint2_linear_1_3)"/>
<defs>
<linearGradient id="paint0_linear_1_3" x1="-54.039" y1="262.515" x2="564.899" y2="262.515" gradientUnits="userSpaceOnUse">
<stop offset="0.293269" stop-color="#6C9AFF"/>
<stop offset="1" stop-color="#51008E"/>
</linearGradient>
<linearGradient id="paint1_linear_1_3" x1="26.3186" y1="367.333" x2="952.215" y2="367.333" gradientUnits="userSpaceOnUse">
<stop offset="0.293269" stop-color="#6C9AFF"/>
<stop offset="1" stop-color="#51008E"/>
</linearGradient>
<linearGradient id="paint2_linear_1_3" x1="-80.9457" y1="682.54" x2="846.829" y2="682.54" gradientUnits="userSpaceOnUse">
<stop offset="0.293269" stop-color="#6C9AFF"/>
<stop offset="1" stop-color="#51008E"/>
</linearGradient>
</defs>
</svg>
